<?xml version="1.0" encoding="UTF-8"?>
<svg version="1.1" xmlns="http://www.w3.org/2000/svg" width="512" height="512">
<path d="M0 0 C168.96 0 337.92 0 512 0 C512 168.96 512 337.92 512 512 C343.04 512 174.08 512 0 512 C0 343.04 0 174.08 0 0 Z " fill="#A33A49" transform="translate(0,0)"/>
<path d="M0 0 C1.13963699 -0.00852997 2.27927399 -0.01705994 3.45344543 -0.02584839 C4.69460114 -0.02494202 5.93575684 -0.02403564 7.21452332 -0.02310181 C8.5288887 -0.02981903 9.84325409 -0.03653625 11.19744873 -0.04345703 C14.79676726 -0.06109728 18.39599064 -0.06581161 21.99534822 -0.0670886 C24.24661064 -0.06851203 26.49784901 -0.07278528 28.74910545 -0.07808304 C36.610315 -0.09657769 44.4714568 -0.10475447 52.33268738 -0.10317993 C59.64850736 -0.10197909 66.96403206 -0.12307137 74.27977735 -0.15466726 C80.57041105 -0.18086292 86.86094851 -0.19154583 93.1516363 -0.19026911 C96.90446815 -0.18976039 100.65703755 -0.19539351 104.40981483 -0.21662521 C108.59882749 -0.23967853 112.78718328 -0.23046667 116.97624207 -0.21841431 C118.21132507 -0.22965332 119.44640808 -0.24089233 120.71891785 -0.25247192 C128.15938291 -0.19810551 134.16653448 0.32584053 139.80338764 5.71474648 C143.33635681 9.745031 145.53774534 13.25110178 145.54395008 18.63158226 C145.54978227 19.50321176 145.55561447 20.37484126 145.56162339 21.27288377 C145.55784407 22.22598581 145.55406475 23.17908786 145.5501709 24.16107178 C145.55399645 25.17706062 145.55782199 26.19304946 145.56176347 27.23982584 C145.57210709 30.65451411 145.56809868 34.06903466 145.56413269 37.48373413 C145.56847842 39.9277614 145.5736611 42.37178729 145.57962036 44.81581116 C145.5916425 50.77166784 145.59415987 56.72745825 145.5918201 62.68332098 C145.59003768 67.52442679 145.59178494 72.36551891 145.59604454 77.20662308 C145.59663973 77.89541373 145.59723492 78.58420438 145.59784814 79.29386748 C145.59905989 80.69311996 145.60027402 82.09237243 145.60149052 83.49162491 C145.61236982 96.61735861 145.61020183 109.74306663 145.60410567 122.86880179 C145.59893715 134.87609939 145.61018953 146.88331584 145.62920389 158.89059739 C145.64857742 171.21919597 145.65683909 183.54775616 145.65308064 195.87637007 C145.65116773 202.79811435 145.65366481 209.71978958 145.66779518 216.64152145 C145.68094815 223.15038773 145.67845551 229.6591183 145.66538429 236.16799355 C145.66301289 238.55851229 145.66577327 240.94904238 145.67400742 243.33954811 C145.68442869 246.59982626 145.67641092 249.85955393 145.66369629 253.11981201 C145.67107057 254.06845261 145.67844486 255.01709321 145.68604261 255.99448049 C145.6351509 262.18665049 144.70766636 266.51278958 140.49259949 271.31430054 C139.84806824 271.87633179 139.20353699 272.43836304 138.53947449 273.01742554 C137.90525574 273.58976929 137.27103699 274.16211304 136.61759949 274.75180054 C129.93156888 279.10445133 122.41275057 278.56388842 114.71989441 278.55795288 C112.84050926 278.56802872 112.84050926 278.56802872 110.92315674 278.57830811 C107.5014468 278.5940075 104.07997967 278.60066057 100.65825057 278.60193968 C98.51584263 278.60336577 96.3734598 278.607644 94.23105812 278.61293411 C86.74359661 278.63141201 79.25620609 278.63960757 71.76872253 278.63803101 C64.8107577 278.63683032 57.85310342 278.65792378 50.89521712 278.68951833 C44.90344713 278.71574756 38.91177816 278.72639552 32.91995126 278.72512019 C29.34928561 278.72461248 25.77889619 278.73018844 22.20828819 278.75147629 C18.22105868 278.77460124 14.23451668 278.76529741 10.24723816 278.75326538 C9.07859222 278.76450439 7.90994629 278.77574341 6.70588684 278.787323 C-1.03717548 278.72813565 -8.67209256 277.90750884 -14.65209675 272.51737022 C-20.39275965 266.3014614 -21.00420962 260.5607736 -20.97122192 252.38087463 C-20.97504747 251.37769316 -20.97887302 250.37451168 -20.98281449 249.34093076 C-20.9931429 245.9754742 -20.98915257 242.61018831 -20.98518372 239.24472046 C-20.98953031 236.83334698 -20.99471328 234.42197489 -21.00067139 232.01060486 C-21.01268618 226.13777629 -21.01521191 220.26499013 -21.01287112 214.39215394 C-21.01108762 209.61735539 -21.0128383 204.84257071 -21.01709557 200.06777382 C-21.01769075 199.38802219 -21.01828594 198.70827055 -21.01889917 198.00792039 C-21.02011093 196.62695191 -21.02132507 195.24598343 -21.02254155 193.86501495 C-21.03341778 180.91423584 -21.03125441 167.96348278 -21.0251567 155.0127022 C-21.01998951 143.17171527 -21.03123757 131.33081065 -21.05025492 119.48983999 C-21.06964043 107.3261818 -21.07788794 95.16256253 -21.07413167 82.99888879 C-21.07222044 76.17211055 -21.07469936 69.34540233 -21.08884621 62.5186367 C-21.10201777 56.09757544 -21.09949021 49.67663763 -21.08643532 43.25557518 C-21.08406759 40.89975936 -21.08681122 38.54393199 -21.09505844 36.18812943 C-21.10551078 32.970204 -21.09743682 29.7528329 -21.08474731 26.53492737 C-21.0921216 25.60446742 -21.09949588 24.67400747 -21.10709363 23.71535176 C-21.05377488 17.28029297 -20.27166954 11.41119948 -16.06208801 6.24398804 C-15.49232239 5.79797241 -14.92255676 5.35195679 -14.33552551 4.89242554 C-13.77091614 4.43094116 -13.20630676 3.96945679 -12.62458801 3.49398804 C-8.48510807 0.84134171 -4.88583407 0.01657618 0 0 Z " fill="#7B365A" transform="translate(70.71052551269531,107.73257446289063)"/>
<path d="M0 0 C1.25636222 -0.00935994 1.25636222 -0.00935994 2.53810549 -0.01890898 C5.35507329 -0.034911 8.1711844 -0.02220678 10.98815918 -0.00964355 C13.00341804 -0.01506147 15.01867293 -0.02218227 17.03392029 -0.03088379 C22.51527251 -0.04915929 27.99632446 -0.04203214 33.47768211 -0.02936745 C39.20583295 -0.01926166 44.93395756 -0.02862637 50.66210938 -0.03491211 C60.28272126 -0.04219558 69.90321044 -0.03258243 79.52380371 -0.0135498 C90.65686835 0.00822021 101.78964001 0.00116934 112.92269754 -0.02085543 C122.47009752 -0.03898947 132.01740914 -0.04157752 141.56482077 -0.03110075 C147.27198688 -0.02485484 152.97901515 -0.0240603 158.68617249 -0.0372467 C164.05095237 -0.04877553 169.41535341 -0.04083378 174.78009224 -0.01766968 C176.75259839 -0.0123667 178.72513626 -0.01392335 180.69762993 -0.02272034 C183.3834089 -0.03359686 186.06796198 -0.02000856 188.75366211 0 C189.93395139 -0.01338433 189.93395139 -0.01338433 191.13808489 -0.02703905 C194.36401371 0.01981243 196.35312177 0.06259521 198.86114025 2.19530392 C200.08284102 4.97699952 200.2515768 6.97815691 200.25105286 10.01795959 C200.25806717 11.13820526 200.26508148 12.25845093 200.27230835 13.41264343 C200.26466461 14.63719742 200.25702087 15.8617514 200.24914551 17.12341309 C200.25279617 18.4164032 200.25644684 19.70939331 200.26020813 21.04156494 C200.26960983 24.58490433 200.26019844 28.12796714 200.246876 31.67128491 C200.23555764 35.37879301 200.23966925 39.08628757 200.24162292 42.79380798 C200.24250567 49.01879393 200.23142873 55.24367092 200.2130127 61.46862793 C200.19183604 68.66800046 200.18833727 75.8672135 200.19457465 83.06661087 C200.20026661 89.99071203 200.19462525 96.91475697 200.18340111 103.83885002 C200.17875383 106.78655982 200.17788181 109.73423524 200.17998695 112.68194771 C200.18221799 116.7953339 200.16777059 120.90849606 200.15148926 125.02185059 C200.15396667 126.2484288 200.15644409 127.47500702 200.15899658 128.73875427 C200.15191177 129.85618011 200.14482697 130.97360596 200.13752747 132.12489319 C200.13444816 133.58413381 200.13444816 133.58413381 200.13130665 135.07285404 C199.87683105 137.50793457 199.87683105 137.50793457 197.87683105 140.50793457 C194.16934468 141.74376336 190.735627 141.65602474 186.87428284 141.65510559 C186.04966425 141.65878228 185.22504566 141.66245897 184.37543863 141.66624707 C181.6025404 141.67729129 178.82967964 141.68112895 176.0567627 141.68493652 C174.07268657 141.69120044 172.08861162 141.69784718 170.10453796 141.70484924 C164.70792901 141.72226153 159.31132892 141.7328109 153.91469884 141.74105477 C150.545527 141.74620277 147.17635792 141.75227849 143.80718803 141.7585659 C133.27263555 141.77761569 122.73809009 141.79184921 112.2035237 141.80017787 C100.02971269 141.80996083 87.85608299 141.83630887 75.68233591 141.87667876 C66.28016599 141.90679187 56.8780482 141.92164204 47.47583097 141.92495888 C41.85634951 141.92731419 36.2370618 141.93633741 30.61763191 141.96142006 C25.33415076 141.98462281 20.05099203 141.98896553 14.76747322 141.97865868 C12.82600841 141.97816136 10.88452813 141.98453917 8.94311142 141.99821472 C6.29713755 142.01581395 3.65233598 142.0088872 1.00636292 141.99568176 C0.23408908 142.00665101 -0.53818475 142.01762025 -1.33386081 142.0289219 C-4.71357833 141.98806162 -6.77708858 141.743594 -9.59993935 139.82140636 C-11.46548774 136.98802288 -11.62364666 135.38420175 -11.62437439 132.00463867 C-11.6391256 130.32643791 -11.6391256 130.32643791 -11.6541748 128.61433411 C-11.64450684 127.39135117 -11.63483887 126.16836823 -11.62487793 124.9083252 C-11.63028091 123.61694138 -11.6356839 122.32555756 -11.64125061 120.99504089 C-11.65521079 117.45569493 -11.644032 113.91683478 -11.6275394 110.37751579 C-11.61368697 106.67314143 -11.62014919 102.96879521 -11.62367249 99.2644043 C-11.62637447 93.04358086 -11.61290018 86.82295038 -11.58972168 80.60217285 C-11.56311189 73.41072087 -11.56136481 66.21959151 -11.57311004 59.02810717 C-11.58389043 52.10932825 -11.57769875 45.19066601 -11.56355476 38.27189636 C-11.55779718 35.32778667 -11.55787582 32.38376243 -11.56262016 29.43965149 C-11.56827989 25.32877036 -11.54906928 21.21837082 -11.52722168 17.10754395 C-11.53172333 15.884561 -11.53622498 14.66157806 -11.54086304 13.40153503 C-11.5309584 12.28273453 -11.52105377 11.16393402 -11.510849 10.01123047 C-11.5084191 9.03932518 -11.50598921 8.06741989 -11.50348568 7.06606293 C-10.45306174 0.00058557 -6.28687871 -0.0712924 0 0 Z " fill="#79355A" transform="translate(258.1231689453125,154.4920654296875)"/>
<path d="M0 0 C1.13963699 -0.00852997 2.27927399 -0.01705994 3.45344543 -0.02584839 C4.69460114 -0.02494202 5.93575684 -0.02403564 7.21452332 -0.02310181 C8.5288887 -0.02981903 9.84325409 -0.03653625 11.19744873 -0.04345703 C14.79676726 -0.06109728 18.39599064 -0.06581161 21.99534822 -0.0670886 C24.24661064 -0.06851203 26.49784901 -0.07278528 28.74910545 -0.07808304 C36.610315 -0.09657769 44.4714568 -0.10475447 52.33268738 -0.10317993 C59.64850736 -0.10197909 66.96403206 -0.12307137 74.27977735 -0.15466726 C80.57041105 -0.18086292 86.86094851 -0.19154583 93.1516363 -0.19026911 C96.90446815 -0.18976039 100.65703755 -0.19539351 104.40981483 -0.21662521 C108.59882749 -0.23967853 112.78718328 -0.23046667 116.97624207 -0.21841431 C118.21132507 -0.22965332 119.44640808 -0.24089233 120.71891785 -0.25247192 C128.15938291 -0.19810551 134.16653448 0.32584053 139.80338764 5.71474648 C143.33635681 9.745031 145.53774534 13.25110178 145.54395008 18.63158226 C145.54978227 19.50321176 145.55561447 20.37484126 145.56162339 21.27288377 C145.55784407 22.22598581 145.55406475 23.17908786 145.5501709 24.16107178 C145.55399645 25.17706062 145.55782199 26.19304946 145.56176347 27.23982584 C145.57210709 30.65451411 145.56809868 34.06903466 145.56413269 37.48373413 C145.56847842 39.9277614 145.5736611 42.37178729 145.57962036 44.81581116 C145.5916425 50.77166784 145.59415987 56.72745825 145.5918201 62.68332098 C145.59003768 67.52442679 145.59178494 72.36551891 145.59604454 77.20662308 C145.59663973 77.89541373 145.59723492 78.58420438 145.59784814 79.29386748 C145.59905989 80.69311996 145.60027402 82.09237243 145.60149052 83.49162491 C145.61236982 96.61735861 145.61020183 109.74306663 145.60410567 122.86880179 C145.59893715 134.87609939 145.61018953 146.88331584 145.62920389 158.89059739 C145.64857742 171.21919597 145.65683909 183.54775616 145.65308064 195.87637007 C145.65116773 202.79811435 145.65366481 209.71978958 145.66779518 216.64152145 C145.68094815 223.15038773 145.67845551 229.6591183 145.66538429 236.16799355 C145.66301289 238.55851229 145.66577327 240.94904238 145.67400742 243.33954811 C145.68442869 246.59982626 145.67641092 249.85955393 145.66369629 253.11981201 C145.67107057 254.06845261 145.67844486 255.01709321 145.68604261 255.99448049 C145.6351509 262.18665049 144.70766636 266.51278958 140.49259949 271.31430054 C139.84806824 271.87633179 139.20353699 272.43836304 138.53947449 273.01742554 C137.90525574 273.58976929 137.27103699 274.16211304 136.61759949 274.75180054 C129.93156888 279.10445133 122.41275057 278.56388842 114.71989441 278.55795288 C112.84050926 278.56802872 112.84050926 278.56802872 110.92315674 278.57830811 C107.5014468 278.5940075 104.07997967 278.60066057 100.65825057 278.60193968 C98.51584263 278.60336577 96.3734598 278.607644 94.23105812 278.61293411 C86.74359661 278.63141201 79.25620609 278.63960757 71.76872253 278.63803101 C64.8107577 278.63683032 57.85310342 278.65792378 50.89521712 278.68951833 C44.90344713 278.71574756 38.91177816 278.72639552 32.91995126 278.72512019 C29.34928561 278.72461248 25.77889619 278.73018844 22.20828819 278.75147629 C18.22105868 278.77460124 14.23451668 278.76529741 10.24723816 278.75326538 C9.07859222 278.76450439 7.90994629 278.77574341 6.70588684 278.787323 C-1.03717548 278.72813565 -8.67209256 277.90750884 -14.65209675 272.51737022 C-20.39275965 266.3014614 -21.00420962 260.5607736 -20.97122192 252.38087463 C-20.97504747 251.37769316 -20.97887302 250.37451168 -20.98281449 249.34093076 C-20.9931429 245.9754742 -20.98915257 242.61018831 -20.98518372 239.24472046 C-20.98953031 236.83334698 -20.99471328 234.42197489 -21.00067139 232.01060486 C-21.01268618 226.13777629 -21.01521191 220.26499013 -21.01287112 214.39215394 C-21.01108762 209.61735539 -21.0128383 204.84257071 -21.01709557 200.06777382 C-21.01769075 199.38802219 -21.01828594 198.70827055 -21.01889917 198.00792039 C-21.02011093 196.62695191 -21.02132507 195.24598343 -21.02254155 193.86501495 C-21.03341778 180.91423584 -21.03125441 167.96348278 -21.0251567 155.0127022 C-21.01998951 143.17171527 -21.03123757 131.33081065 -21.05025492 119.48983999 C-21.06964043 107.3261818 -21.07788794 95.16256253 -21.07413167 82.99888879 C-21.07222044 76.17211055 -21.07469936 69.34540233 -21.08884621 62.5186367 C-21.10201777 56.09757544 -21.09949021 49.67663763 -21.08643532 43.25557518 C-21.08406759 40.89975936 -21.08681122 38.54393199 -21.09505844 36.18812943 C-21.10551078 32.970204 -21.09743682 29.7528329 -21.08474731 26.53492737 C-21.0921216 25.60446742 -21.09949588 24.67400747 -21.10709363 23.71535176 C-21.05377488 17.28029297 -20.27166954 11.41119948 -16.06208801 6.24398804 C-15.49232239 5.79797241 -14.92255676 5.35195679 -14.33552551 4.89242554 C-13.77091614 4.43094116 -13.20630676 3.96945679 -12.62458801 3.49398804 C-8.48510807 0.84134171 -4.88583407 0.01657618 0 0 Z M-7.53069496 32.28828239 C-9.41425832 35.44792383 -9.12217051 38.74137405 -9.09147644 42.31466675 C-9.09615641 43.14407445 -9.10083638 43.97348216 -9.10565817 44.82802343 C-9.11765858 47.61722986 -9.10813134 50.40594953 -9.09870911 53.19515991 C-9.10277257 55.19071236 -9.10811317 57.18626256 -9.11463928 59.18180847 C-9.12834549 64.60940095 -9.12300059 70.03682285 -9.11350203 75.46441841 C-9.10592253 81.13651118 -9.11294627 86.80858905 -9.11766052 92.48068237 C-9.12312307 102.00711701 -9.11591337 111.53348194 -9.10163879 121.05990601 C-9.08531136 132.08386429 -9.09059951 143.10765614 -9.10711801 154.13161039 C-9.12071866 163.58558184 -9.1226595 173.03950309 -9.114802 182.49348116 C-9.11011766 188.14473481 -9.1095215 193.79591015 -9.11941147 199.44715881 C-9.12805818 204.75934859 -9.12210127 210.07132316 -9.1047287 215.38348961 C-9.10075156 217.33664784 -9.10191875 219.2898241 -9.10851669 221.24297523 C-9.11667393 223.90229199 -9.10648151 226.56091235 -9.09147644 229.22018433 C-9.09816861 229.99926195 -9.10486077 230.77833957 -9.11175573 231.5810256 C-9.07979968 234.48631945 -9.03984029 236.7163111 -7.52790165 239.24656868 C-5.01007563 240.66088237 -3.13783337 240.64507079 -0.2515564 240.64837646 C1.44982483 240.66106567 1.44982483 240.66106567 3.18557739 240.67401123 C5.05349693 240.66490219 5.05349693 240.66490219 6.95915222 240.65560913 C8.26989716 240.66086609 9.58064209 240.66612305 10.93110657 240.67153931 C14.52827461 240.68523021 18.12518489 240.67990674 21.72235751 240.67040205 C25.48546471 240.66281298 29.24854966 240.66984911 33.01165771 240.67456055 C39.33257514 240.68002098 45.65338747 240.6728197 51.97428894 240.65853882 C59.2821567 240.64221874 66.58977328 240.64749487 73.89763492 240.66401803 C80.17033934 240.67763318 86.44296815 240.67955223 92.71568257 240.67170203 C96.46276374 240.66702473 100.20972687 240.66640199 103.95680046 240.67631149 C108.13481892 240.68658842 112.31240471 240.6723433 116.49040222 240.65560913 C118.35528542 240.66471817 118.35528542 240.66471817 120.25784302 240.67401123 C121.39491699 240.66555176 122.53199097 240.65709229 123.70352173 240.64837646 C124.69147452 240.64724539 125.67942732 240.64611431 126.69731808 240.64494896 C129.89854255 240.17872045 131.17951789 239.74982832 133.28947449 237.26742554 C133.68797768 234.45633608 133.82536481 232.03353129 133.79067993 229.22018433 C133.79621433 228.39077662 133.80174873 227.56136891 133.80745083 226.70682764 C133.82110376 223.91748066 133.80606325 221.12902131 133.79118347 218.33969116 C133.79496497 216.34413776 133.8004636 214.34858698 133.80755615 212.3530426 C133.82155015 206.92539495 133.81031329 201.49806288 133.79384494 196.07043266 C133.78002405 190.39834197 133.78645113 184.72627014 133.78997803 179.0541687 C133.7926825 169.5277089 133.77918417 160.00137493 133.75602722 150.47494507 C133.72941604 139.4509805 133.72766953 128.42722636 133.73941559 117.40324068 C133.75018366 106.81152935 133.74401392 96.21989435 133.72986031 85.62818909 C133.72409208 81.11467185 133.72418975 76.60121033 133.7289257 72.08769226 C133.73368758 66.77549022 133.72362656 61.46351948 133.70197105 56.15136147 C133.69639224 54.19820753 133.69594786 52.24503141 133.70092392 50.29187584 C133.70685089 47.63254688 133.69442177 44.97393129 133.67715454 42.31466675 C133.68316459 41.53558913 133.68917463 40.75651151 133.6953668 39.95382547 C133.66091369 37.05038581 133.61782108 34.81802438 132.10922337 32.28828239 C129.57838505 30.86851306 127.68585631 30.88976713 124.78581238 30.88647461 C123.06964218 30.8737854 123.06964218 30.8737854 121.31880188 30.86083984 C120.0626004 30.86691254 118.80639893 30.87298523 117.51213074 30.87924194 C116.17666698 30.87517714 114.84120658 30.86983577 113.50575256 30.86331177 C109.87766163 30.84962131 106.24982628 30.8549438 102.6217308 30.86444902 C98.82745925 30.87203673 95.03320978 30.86500249 91.23893738 30.86029053 C84.86674566 30.85483037 78.4946582 30.86203136 72.1224823 30.87631226 C64.75211132 30.89263934 57.38198928 30.88735101 50.01162434 30.87083304 C43.68713148 30.85722553 37.36271363 30.85529489 31.03821087 30.86314905 C27.25930385 30.86782964 23.48051391 30.8684399 19.70161438 30.85853958 C16.14912876 30.84988281 12.59696455 30.85586781 9.0445137 30.87322235 C7.11639601 30.87909104 5.18825119 30.87016063 3.26014709 30.86083984 C2.11603363 30.86929932 0.97192017 30.87775879 -0.2068634 30.88647461 C-1.20311234 30.88760569 -2.19936127 30.88873676 -3.22579956 30.88990211 C-5.68906013 31.11477072 -5.68906013 31.11477072 -7.53069496 32.28828239 Z " fill="#4D2644" transform="translate(70.71052551269531,107.73257446289063)"/>
<path d="M0 0 C0.91152533 -0.00709439 1.82305066 -0.01418877 2.76219797 -0.02149814 C5.8117449 -0.03907803 8.8600173 -0.02097305 11.9095459 -0.00291443 C14.0977181 -0.00805323 16.28588617 -0.01533421 18.4740448 -0.02459717 C24.41414124 -0.0431241 30.35378929 -0.03016407 36.29386711 -0.01050687 C42.50906783 0.00587005 48.72423993 -0.00293194 54.93945312 -0.00802612 C65.37698198 -0.01254813 75.81434311 0.00322506 86.25183105 0.03126526 C96.98595625 0.06010189 107.71982618 0.06718582 118.45397949 0.05177307 C131.39626816 0.03321514 144.33839734 0.03495406 157.28068542 0.0539875 C162.22156426 0.06086163 167.1623482 0.05982178 172.10322571 0.05244255 C177.92112655 0.04478377 183.73865948 0.05689305 189.55649757 0.08429146 C191.69222229 0.09118056 193.82798134 0.09126767 195.96370506 0.08407593 C198.87815139 0.07539253 201.79145943 0.09131898 204.70581055 0.11352539 C205.55192225 0.10528462 206.39803395 0.09704386 207.2697854 0.08855337 C212.56568822 0.16308108 215.75787139 0.96049335 219.85290527 4.62818909 C222.70425217 8.9717716 223.23126977 12.38758258 223.24731445 17.52868652 C223.25340556 18.1985767 223.25949666 18.86846687 223.26577234 19.55865675 C223.28234383 21.79026138 223.27763519 24.02129176 223.27282715 26.25294495 C223.28017086 27.85822133 223.28875797 29.46349244 223.29849243 31.0687561 C223.32068416 35.4200186 223.32364034 39.77109159 223.32174492 44.12240291 C223.32162512 47.75809644 223.33019291 51.39374997 223.33852243 55.02943236 C223.35774766 63.60787003 223.36064336 72.18621039 223.35388184 80.7646637 C223.34723971 89.60802041 223.37011421 98.45096016 223.40719557 107.29423231 C223.43790212 114.89357496 223.44925162 122.49278354 223.44535875 130.09218699 C223.44329243 134.62803211 223.44875245 139.16355266 223.47325134 143.69933891 C223.49553219 147.96523705 223.49362992 152.23045749 223.47332382 156.49635887 C223.46991623 158.05922218 223.47499217 159.62213124 223.4893074 161.18493271 C223.60237661 174.44681438 223.60237661 174.44681438 220.56445312 178.98782349 C215.61236986 183.80990704 211.71145398 183.92283147 204.95304871 183.90907288 C204.04393779 183.91501512 203.13482688 183.92095737 202.19816715 183.92707968 C199.14513585 183.94445362 196.09226141 183.9474701 193.03918457 183.95045471 C190.85293238 183.95971102 188.66668342 183.96976033 186.48043823 183.98054504 C180.53618103 184.00679617 174.591969 184.01968333 168.64766288 184.02856636 C164.9348952 184.03442682 161.22213989 184.0426362 157.50937843 184.05157471 C145.22820084 184.08049633 132.94705721 184.09915599 120.66584864 184.10730773 C120.0038493 184.10775327 119.34184996 184.1081988 118.65979004 184.10865784 C117.99698112 184.1091007 117.33417221 184.10954356 116.65127818 184.10999984 C105.9120023 184.11789548 95.17299786 184.15280403 84.43382683 184.19937688 C73.40360181 184.24682523 62.37351982 184.27121372 51.3431924 184.27406073 C45.15178417 184.2761583 38.9607589 184.28800439 32.76944542 184.32369995 C26.94576215 184.35662283 21.1227505 184.36099192 15.29900742 184.34342194 C13.16206249 184.34187912 11.02508173 184.35059424 8.88822746 184.37033844 C5.96925429 184.39572685 3.05266919 184.384058 0.13371277 184.36317444 C-1.13313188 184.38734365 -1.13313188 184.38734365 -2.42556936 184.41200113 C-7.85898877 184.32115538 -10.88139679 183.07541621 -14.78298521 179.24425179 C-18.2772554 175.10458436 -18.39858631 171.22307723 -18.40779114 165.95510864 C-18.41161668 165.29761798 -18.41544223 164.64012732 -18.4193837 163.96271271 C-18.42967387 161.76721969 -18.42572924 159.57199015 -18.42175293 157.3764801 C-18.4261016 155.79928852 -18.43128527 154.22209905 -18.4372406 152.64491272 C-18.45062482 148.36599295 -18.45120994 144.08716154 -18.4486773 139.80822492 C-18.44760724 136.23463033 -18.45249182 132.6610536 -18.45728272 129.08746284 C-18.46837581 120.65628182 -18.46881636 112.22514536 -18.46276855 103.79396057 C-18.45672739 95.0989666 -18.46904384 86.40413439 -18.49033862 77.70916802 C-18.50795647 70.24065958 -18.51395571 62.77220262 -18.51070088 55.30367416 C-18.50888825 50.84450026 -18.51152228 46.38544177 -18.52541542 41.9262867 C-18.53799221 37.73277268 -18.53605114 33.53951082 -18.52300453 29.34600067 C-18.52063891 27.80852358 -18.52337296 26.27102876 -18.53162766 24.73357201 C-18.54209846 22.63150717 -18.53399285 20.53028793 -18.52131653 18.42825317 C-18.52148427 17.25300866 -18.52165201 16.07776415 -18.52182484 14.86690617 C-17.91624429 9.63299509 -16.07841234 6.63780995 -12.53128815 2.7924509 C-8.61780357 -0.20555361 -4.77326264 -0.06677019 0 0 Z M-2.13056278 17.315979 C-3.35135968 20.09281146 -3.52718688 22.09649075 -3.53477478 25.13148499 C-3.54467941 26.25028549 -3.55458405 27.369086 -3.56478882 28.52178955 C-3.56028717 29.74477249 -3.55578552 30.96775543 -3.55114746 32.22779846 C-3.55801071 33.51918228 -3.56487396 34.8105661 -3.57194519 36.14108276 C-3.58988869 39.68032977 -3.58870624 43.21932903 -3.58300281 46.75860786 C-3.57991307 49.71350501 -3.58600089 52.66835441 -3.59204155 55.62324476 C-3.60608867 62.59352049 -3.6045236 69.56367365 -3.59313965 76.53395081 C-3.58165397 83.72544665 -3.59574092 90.91656976 -3.62253612 98.10801649 C-3.64468303 104.28308219 -3.65133294 110.45803081 -3.64545971 116.63313341 C-3.64208697 120.3210038 -3.64452607 124.00863517 -3.66171074 127.69647217 C-3.68003113 131.80741543 -3.66600339 135.91763171 -3.64880371 140.02857971 C-3.65847168 141.25156265 -3.66813965 142.47454559 -3.67810059 143.73458862 C-3.66334938 145.41278938 -3.66334938 145.41278938 -3.64830017 147.12489319 C-3.64809089 148.09679848 -3.6478816 149.06870377 -3.64766598 150.07006073 C-2.96912256 153.53770124 -2.06931454 154.63750301 0.85290527 156.62818909 C3.69101833 157.01676339 6.13936948 157.16048045 8.97570801 157.12266541 C9.80118102 157.12749424 10.62665403 157.13232307 11.47714138 157.13729823 C14.24724776 157.1485832 17.01643388 157.13123966 19.78649902 157.11402893 C21.77072398 157.11617445 23.75494772 157.12005163 25.73916626 157.12553406 C31.13171142 157.13523917 36.52392621 157.11990941 41.91643143 157.09962797 C47.55467614 157.08207912 53.19291031 157.08558163 58.83117676 157.08634949 C68.30039 157.08447558 77.76947516 157.06709957 87.23864746 157.03981018 C98.19271412 157.00835846 109.14664047 156.99781395 120.10074902 156.99928129 C130.62998086 157.00050133 141.15916692 156.99029516 151.68838501 156.97369766 C156.1731502 156.96662944 160.65789919 156.9629708 165.14266968 156.96191025 C170.42201765 156.95990346 175.70124749 156.94771084 180.98055649 156.92757797 C182.92039136 156.92172858 184.86023982 156.91927712 186.80008316 156.92043304 C189.44354919 156.92141229 192.08668276 156.91012465 194.73010254 156.89561462 C195.88749011 156.90026043 195.88749011 156.90026043 197.06825924 156.90500009 C200.78225232 156.87122534 203.76340916 156.83039536 206.85290527 154.62818909 C208.13548401 152.06303162 207.98457006 150.23856949 207.99334717 147.36540222 C207.99905731 146.24935104 208.00476746 145.13329987 208.01065063 143.98342896 C208.01176849 142.75325546 208.01288635 141.52308197 208.01403809 140.25563049 C208.01900299 138.96453873 208.0239679 137.67344696 208.02908325 136.3432312 C208.04221507 132.79567406 208.04865369 129.24813584 208.05309391 125.70055819 C208.05602329 123.48503012 208.06012784 121.26950724 208.06459808 119.05398178 C208.07827489 112.12455952 208.08794073 105.19514911 208.09179997 98.26571429 C208.09628176 90.26208828 208.11383432 82.25863298 208.14280057 74.25505888 C208.16440416 68.07156416 208.17450354 61.8881175 208.17584109 55.70458543 C208.17689005 52.01000244 208.18281696 48.31557985 208.20066071 44.62103653 C208.22017479 40.50043092 208.21585774 36.38018339 208.20935059 32.25953674 C208.22317276 30.4203492 208.22317276 30.4203492 208.23727417 28.54400635 C208.23170502 27.42231552 208.22613586 26.30062469 208.22039795 25.14494324 C208.22186451 24.17044031 208.22333107 23.19593739 208.22484207 22.19190407 C207.76190444 19.00093145 207.32796961 17.73190457 204.85290527 15.62818909 C202.0179115 15.22759801 199.56738906 15.0880759 196.72973633 15.12025452 C195.89216152 15.11401455 195.05458671 15.10777459 194.19163084 15.10134554 C191.37466304 15.08534351 188.55855193 15.09804774 185.74157715 15.11061096 C183.72631829 15.10519304 181.71106339 15.09807225 179.69581604 15.08937073 C174.21446381 15.07109523 168.73341186 15.07822238 163.25205421 15.09088707 C157.52390338 15.10099285 151.79577877 15.09162814 146.06762695 15.08534241 C136.44701507 15.07805893 126.82652589 15.08767209 117.20593262 15.10670471 C106.07286798 15.12847473 94.94009632 15.12142385 83.80703878 15.09939909 C74.25963881 15.08126505 64.71232719 15.078677 55.16491556 15.08915377 C49.45774945 15.09539967 43.75072118 15.09619421 38.04356384 15.08300781 C32.67878396 15.07147899 27.31438291 15.07942074 21.94964409 15.10258484 C19.97713794 15.10788782 18.00460006 15.10633116 16.0321064 15.09753418 C13.34632743 15.08665766 10.66177435 15.10024595 7.97607422 15.12025452 C7.1892147 15.11133163 6.40235518 15.10240874 5.59165144 15.09321547 C2.36568989 15.14006742 0.37685186 15.1823479 -2.13056278 17.315979 Z " fill="#4B2645" transform="translate(250.1470947265625,139.37181091308594)"/>
<path d="M0 0 C0.74572266 0.00386719 1.49144531 0.00773438 2.25976562 0.01171875 C3.00162109 0.00785156 3.74347656 0.00398437 4.5078125 0 C10.06899561 0.01008374 10.06899561 0.01008374 12.32226562 1.13671875 C12.77258167 3.08324615 13.15838371 5.04492333 13.50976562 7.01171875 C14.39344006 11.28045287 14.39344006 11.28045287 16.93164062 14.6328125 C19.39164006 15.73140199 21.69500233 16.15572673 24.38476562 16.07421875 C26.58402185 15.08510252 26.58402185 15.08510252 29.25976562 12.94921875 C30.27039063 12.35109375 31.28101563 11.75296875 32.32226562 11.13671875 C36.27377967 12.19641395 38.7930418 14.12596771 41.69726562 16.94921875 C42.40625 17.61566406 43.11523438 18.28210938 43.84570312 18.96875 C45.32226562 21.13671875 45.32226562 21.13671875 45.18164062 23.74609375 C44.32226562 26.13671875 44.32226562 26.13671875 42.19726562 28.57421875 C39.99342371 31.01284827 39.99342371 31.01284827 40.50976562 34.13671875 C40.77789062 35.12671875 41.04601562 36.11671875 41.32226562 37.13671875 C41.50789063 38.08546875 41.69351563 39.03421875 41.88476562 40.01171875 C42.10132813 41.06359375 42.10132813 41.06359375 42.32226562 42.13671875 C43.35351562 42.09546875 44.38476562 42.05421875 45.44726562 42.01171875 C49.32226562 42.13671875 49.32226562 42.13671875 55.32226562 44.13671875 C55.32226562 49.74671875 55.32226562 55.35671875 55.32226562 61.13671875 C51.84857496 62.87356408 50.24606625 63.43755987 46.57226562 63.76171875 C45.77304687 63.83648437 44.97382813 63.91125 44.15039062 63.98828125 C43.54710937 64.03726563 42.94382812 64.08625 42.32226562 64.13671875 C40.22326922 70.20479256 40.22326922 70.20479256 41.33789062 76.21875 C42.71875462 78.01866676 42.71875462 78.01866676 44.25585938 79.56640625 C45.32226562 81.13671875 45.32226562 81.13671875 45.24804688 83.03125 C43.99094843 85.89022072 42.2500508 87.7173495 40.07226562 89.94921875 C38.91984375 91.16544922 38.91984375 91.16544922 37.74414062 92.40625 C35.32226562 94.13671875 35.32226562 94.13671875 32.68945312 94.0390625 C30.32226562 93.13671875 30.32226562 93.13671875 27.69726562 90.88671875 C23.66464906 88.79573238 22.69205743 89.21123794 18.44726562 90.38671875 C16.73064472 90.94519275 15.01911575 91.52078027 13.32226562 92.13671875 C13.34289062 93.18859375 13.36351562 94.24046875 13.38476562 95.32421875 C13.33305293 98.47869298 13.208626 101.12309348 12.32226562 104.13671875 C9.13401995 105.73084159 5.693299 105.2384661 2.19726562 105.19921875 C1.44316406 105.19470703 0.6890625 105.19019531 -0.08789062 105.18554688 C-1.95120564 105.17375374 -3.81447993 105.15581817 -5.67773438 105.13671875 C-7.34883479 102.17493102 -8.0045619 99.76600683 -8.30273438 96.38671875 C-8.3775 95.5875 -8.45226562 94.78828125 -8.52929688 93.96484375 C-8.57828125 93.3615625 -8.62726563 92.75828125 -8.67773438 92.13671875 C-10.67315306 91.45646238 -12.67391429 90.79181378 -14.67773438 90.13671875 C-15.66193359 89.77900391 -15.66193359 89.77900391 -16.66601562 89.4140625 C-18.72112225 88.91844242 -18.72112225 88.91844242 -20.42382812 90.16796875 C-21.54994837 91.14584684 -22.67495281 92.12501139 -23.79882812 93.10546875 C-25.67773438 94.13671875 -25.67773438 94.13671875 -28.09570312 94.05859375 C-31.34117438 92.89984758 -33.10906817 91.3063489 -35.55273438 88.88671875 C-36.35453125 88.1184375 -37.15632813 87.35015625 -37.98242188 86.55859375 C-39.67773438 84.13671875 -39.67773438 84.13671875 -39.56835938 81.49609375 C-38.67773438 79.13671875 -38.67773438 79.13671875 -36.55273438 76.63671875 C-34.38807914 74.32182387 -34.38807914 74.32182387 -34.86523438 71.63671875 C-35.13335937 70.81171875 -35.40148437 69.98671875 -35.67773438 69.13671875 C-36.02282603 67.47244695 -36.35778748 65.80600688 -36.67773438 64.13671875 C-37.53238281 64.00394531 -38.38703125 63.87117188 -39.26757812 63.734375 C-40.37230469 63.55777344 -41.47703125 63.38117188 -42.61523438 63.19921875 C-43.71738281 63.02519531 -44.81953125 62.85117188 -45.95507812 62.671875 C-48.67773438 62.13671875 -48.67773438 62.13671875 -49.67773438 61.13671875 C-49.75098606 58.27404308 -49.77011643 55.43599975 -49.74023438 52.57421875 C-49.73572266 51.76791016 -49.73121094 50.96160156 -49.7265625 50.13085938 C-49.71473955 48.13278119 -49.69680352 46.13474092 -49.67773438 44.13671875 C-45.11875954 42.496521 -41.53955606 41.94224588 -36.67773438 42.13671875 C-36.33499032 40.47196189 -36.00409135 38.80476552 -35.67773438 37.13671875 C-35.38898438 36.16734375 -35.10023438 35.19796875 -34.80273438 34.19921875 C-34.66037367 30.71138151 -34.95497016 30.44939111 -37.17773438 28.01171875 C-39.67773438 25.13671875 -39.67773438 25.13671875 -39.63476562 23.2890625 C-38.26095779 20.19939672 -36.23526826 18.22201291 -33.86523438 15.82421875 C-32.99253906 14.92058594 -32.11984375 14.01695312 -31.22070312 13.0859375 C-28.67773438 11.13671875 -28.67773438 11.13671875 -26.52148438 11.203125 C-24.67773438 12.13671875 -24.67773438 12.13671875 -21.99023438 14.38671875 C-18.47898632 16.24171772 -17.70266564 16.43223974 -13.99023438 15.63671875 C-11.59254976 14.84538172 -11.59254976 14.84538172 -9.67773438 13.13671875 C-8.01972221 9.21973208 -7.37572141 5.31217688 -6.67773438 1.13671875 C-4.86585595 -0.67515967 -2.40795928 0.00437413 0 0 Z " fill="#E7C1C6" transform="translate(349.677734375,174.86328125)"/>
<path d="M0 0 C2 2 2 2 2.04920959 3.84092712 C1.30965597 9.37922268 0.25929889 14.76451521 -1.06640625 20.19140625 C-1.26475571 21.02212143 -1.46310516 21.85283661 -1.66746521 22.70872498 C-2.29406435 25.32789981 -2.92814077 27.94519509 -3.5625 30.5625 C-3.99203496 32.35209397 -4.42107598 34.14180656 -4.84960938 35.93164062 C-5.8940404 40.28915124 -6.94517521 44.64499426 -8 49 C-10.475 49.495 -10.475 49.495 -13 50 C-13.96548612 48.7764437 -14.92205898 47.54585189 -15.875 46.3125 C-16.40867187 45.62800781 -16.94234375 44.94351563 -17.4921875 44.23828125 C-19.06476358 41.90386132 -20.04723869 39.64090635 -21 37 C-21.969375 37.50789063 -22.93875 38.01578125 -23.9375 38.5390625 C-56.57346561 55.4041317 -92.63854136 61.81841625 -128.4375 50.6875 C-146.55895537 44.67419366 -162.00459983 35.96596618 -176 23 C-177.36623674 20.26752652 -177.128426 18.01801098 -177 15 C-176 14 -176 14 -173.8046875 13.65625 C-170.00456987 14.12200258 -167.93405995 16.09484296 -165.125 18.5 C-141.43657781 37.59732704 -111.88058489 42.79325312 -82.06787109 39.6953125 C-67.18020592 37.51893184 -52.97021506 32.32185199 -40.2578125 24.3203125 C-38 23 -38 23 -36 23 C-36 22.34 -36 21.68 -36 21 C-36.55171875 20.75507813 -37.1034375 20.51015625 -37.671875 20.2578125 C-40.47639491 18.74261886 -42.78103123 16.88915874 -45.25 14.875 C-46.14203125 14.15054687 -47.0340625 13.42609375 -47.953125 12.6796875 C-48.62859375 12.12539063 -49.3040625 11.57109375 -50 11 C-49.125 6.125 -49.125 6.125 -48 5 C-44.97534862 4.55298371 -41.96176612 4.16219539 -38.92578125 3.80859375 C-37.5508979 3.64424583 -37.5508979 3.64424583 -36.14823914 3.47657776 C-34.20234708 3.2450551 -32.2561956 3.01570431 -30.30981445 2.78833008 C-27.34188016 2.44093889 -24.37502537 2.08526508 -21.40820312 1.72851562 C-19.51828836 1.50470795 -17.62831608 1.28138522 -15.73828125 1.05859375 C-14.85368729 0.95236191 -13.96909332 0.84613007 -13.05769348 0.73667908 C-4.03947484 -0.30686997 -4.03947484 -0.30686997 0 0 Z " fill="#E9C4C7" transform="translate(323,385)"/>
<path d="M0 0 C21.45 0 42.9 0 65 0 C68 17 68 17 69 23 C69.66 23 70.32 23 71 23 C71.495 23.99 71.495 23.99 72 25 C75.10451108 25.23094534 78.16578264 25.31772263 81.27734375 25.30273438 C85.18627634 25.42176867 86.8687476 25.89412886 89.94921875 28.37890625 C92 31 92 31 92.5625 33.625 C92 36 92 36 90.25702 37.6242075 C87.68307356 39.19318616 86.31301363 39.37872764 83.32518005 39.38768005 C81.92247864 39.402537 81.92247864 39.402537 80.49143982 39.41769409 C79.47260208 39.41319244 78.45376434 39.4086908 77.40405273 39.40405273 C76.32564117 39.41091599 75.24722961 39.41777924 74.13613892 39.42485046 C70.56849028 39.44316503 67.00127934 39.43927486 63.43359375 39.43359375 C60.95784867 39.43815264 58.48210487 39.44345734 56.00636292 39.44947815 C50.81709655 39.45841794 45.62798401 39.45597536 40.4387207 39.44604492 C33.7778742 39.43454245 27.11776088 39.45478202 20.456954 39.48396206 C15.34496165 39.50227576 10.2330973 39.50204143 5.1210804 39.49632454 C2.66460489 39.4961708 0.20812099 39.50225862 -2.24832344 39.51461601 C-5.67703974 39.52943604 -9.1047628 39.51891511 -12.53344727 39.50170898 C-13.55430923 39.51137695 -14.5751712 39.52104492 -15.62696838 39.53100586 C-16.55928284 39.52117172 -17.49159729 39.51133759 -18.4521637 39.50120544 C-19.26275521 39.50099616 -20.07334673 39.50078688 -20.90850163 39.50057125 C-23 39 -23 39 -24.79205227 37.16008091 C-26 35 -26 35 -25.875 31.9375 C-24.96465775 28.88135102 -24.43359503 27.93475534 -22 26 C-20.09887695 25.56762695 -20.09887695 25.56762695 -17.98828125 25.48828125 C-16.85229492 25.43510742 -16.85229492 25.43510742 -15.69335938 25.38085938 C-14.90767578 25.35830078 -14.12199219 25.33574219 -13.3125 25.3125 C-12.11657227 25.26125977 -12.11657227 25.26125977 -10.89648438 25.20898438 C-8.93148096 25.12661896 -6.96576304 25.06162933 -5 25 C-4.34378648 22.71088306 -3.70005677 20.41932193 -3.0625 18.125 C-2.88009766 17.49335938 -2.69769531 16.86171875 -2.50976562 16.2109375 C-0.9832205 10.65986432 -0.59395736 5.93957356 0 0 Z " fill="#4B2646" transform="translate(320,332)"/>
<path d="M0 0 C6.30150911 2.82229752 10.07002084 7.77604724 13.3984375 13.65625 C15.46828535 20.44075127 15.43222558 26.05880381 12.5234375 32.59375 C9.18506064 38.60850264 4.69135737 41.89178673 -1.4765625 44.71875 C-9.81128579 46.45515069 -16.99009455 45.09680988 -24.2265625 40.65625 C-28.96293756 35.78830897 -32.57767761 30.14189757 -32.7265625 23.21875 C-32.58194711 15.1202882 -30.32245579 9.48174492 -24.48828125 3.8515625 C-17.1924077 -1.61680098 -8.75224602 -2.31920715 0 0 Z " fill="#7E375C" transform="translate(361.4765625,205.65625)"/>
<path d="M0 0 C3.91386903 0.29305109 5.9353478 1.4292636 8.70703125 4.1328125 C9.37669922 4.77476562 10.04636719 5.41671875 10.73632812 6.078125 C11.7640332 7.09132812 11.7640332 7.09132812 12.8125 8.125 C14.17187633 9.44144866 15.53255226 10.75655669 16.89453125 12.0703125 C17.89734131 13.05112793 17.89734131 13.05112793 18.92041016 14.05175781 C21.66083019 16.61909191 24.57572885 18.95088081 27.5378418 21.25732422 C29 23 29 23 29.32348633 25.56933594 C28.87451598 28.94288223 27.46146637 30.07153316 25 32.375 C24.175 33.15359375 23.35 33.9321875 22.5 34.734375 C21.2625 35.85585937 21.2625 35.85585937 20 37 C19.319375 37.62390625 18.63875 38.2478125 17.9375 38.890625 C15.98945987 40.63443512 14.00596921 42.32325474 12 44 C11.22140625 44.66773438 10.4428125 45.33546875 9.640625 46.0234375 C8.45726563 47.00183594 8.45726563 47.00183594 7.25 48 C6.53328125 48.598125 5.8165625 49.19625 5.078125 49.8125 C3 51 3 51 0.796875 50.75 C-1 50 -1 50 -2 49 C-2.4453125 46.8125 -2.4453125 46.8125 -2 44 C-0.00756377 41.7769851 1.87724112 39.92525434 4.125 38 C4.97964844 37.23816406 4.97964844 37.23816406 5.8515625 36.4609375 C9.5002059 33.22691267 13.24261222 30.10641178 17 27 C15.56548817 23.64276013 13.81521147 21.68698001 11.0859375 19.28515625 C10.32539062 18.59873047 9.56484375 17.91230469 8.78125 17.20507812 C7.17465437 15.77452991 5.56263605 14.35004898 3.9453125 12.93164062 C3.18734375 12.24392578 2.429375 11.55621094 1.6484375 10.84765625 C0.94895996 10.22898682 0.24948242 9.61031738 -0.47119141 8.97290039 C-2 7 -2 7 -2.35302734 4.38452148 C-2 2 -2 2 0 0 Z " fill="#E9C4C8" transform="translate(86,207)"/>
<path d="M0 0 C15.84 0 31.68 0 48 0 C48 1.65 48 3.3 48 5 C46.4303011 6.5696989 44.87559822 6.13499102 42.69555664 6.14526367 C41.32392113 6.15483345 41.32392113 6.15483345 39.92457581 6.16459656 C38.43243813 6.16626579 38.43243813 6.16626579 36.91015625 6.16796875 C35.89529648 6.17129715 34.88043671 6.17462555 33.83482361 6.17805481 C31.6835882 6.1831285 29.5323449 6.185463 27.38110352 6.18530273 C24.08010964 6.18748834 20.77945025 6.20563707 17.47851562 6.22460938 C15.39323032 6.22754331 13.30794341 6.2295281 11.22265625 6.23046875 C10.22992203 6.23765427 9.23718781 6.24483978 8.21437073 6.25224304 C7.29679489 6.24916641 6.37921906 6.24608978 5.43383789 6.24291992 C4.62411026 6.24434494 3.81438263 6.24576996 2.9801178 6.24723816 C1 6 1 6 -1 4 C-0.67 2.68 -0.34 1.36 0 0 Z " fill="#75345A" transform="translate(110,123)"/>
<path d="M0 0 C1.02075623 -0.00287018 1.02075623 -0.00287018 2.06213379 -0.00579834 C3.50122446 -0.00715963 4.94032744 -0.00346705 6.37939453 0.00488281 C8.58524087 0.01558372 10.79027281 0.00498628 12.99609375 -0.0078125 C14.39323097 -0.00649089 15.79036768 -0.00392848 17.1875 0 C18.46302734 0.00225586 19.73855469 0.00451172 21.05273438 0.00683594 C24.09375 0.265625 24.09375 0.265625 26.09375 2.265625 C25.53819444 6.82118056 25.53819444 6.82118056 24.09375 8.265625 C21.72976532 8.3664062 19.39563689 8.40535715 17.03125 8.3984375 C16.32476318 8.39939423 15.61827637 8.40035095 14.89038086 8.40133667 C13.39404207 8.40201833 11.89770033 8.40016505 10.40136719 8.39599609 C8.10344843 8.39064757 5.80572514 8.39594151 3.5078125 8.40234375 C2.05729123 8.40168297 0.60677009 8.4004018 -0.84375 8.3984375 C-1.8812439 8.40147385 -1.8812439 8.40147385 -2.93969727 8.40457153 C-7.79129776 8.38057724 -7.79129776 8.38057724 -8.90625 7.265625 C-9.09375 4.828125 -9.09375 4.828125 -8.90625 2.265625 C-6.03758116 -0.60304384 -4.00969387 0.00709142 0 0 Z " fill="#EAC7CB" transform="translate(129.90625,246.734375)"/>
<path d="M0 0 C0.68429077 -0.00095673 1.36858154 -0.00191345 2.0736084 -0.00289917 C3.52286877 -0.0035808 4.97213218 -0.00172773 6.42138672 0.00244141 C8.64687928 0.00778998 10.87217001 0.0024959 13.09765625 -0.00390625 C14.50260461 -0.00324547 15.90755285 -0.0019643 17.3125 0 C18.59962891 0.00112793 19.88675781 0.00225586 21.21289062 0.00341797 C24.15625 0.1328125 24.15625 0.1328125 25.15625 1.1328125 C25.28125 3.6328125 25.28125 3.6328125 25.15625 6.1328125 C22.68137289 8.60768961 16.6154388 7.30618482 13.14648438 7.31835938 C12.42033936 7.31827881 11.69419434 7.31819824 10.94604492 7.31811523 C8.73141218 7.32030001 6.51727877 7.33844781 4.30273438 7.35742188 C2.90104338 7.36035606 1.49935 7.36234069 0.09765625 7.36328125 C-1.18423584 7.36739014 -2.46612793 7.37149902 -3.78686523 7.37573242 C-6.84375 7.1328125 -6.84375 7.1328125 -8.84375 5.1328125 C-7.94676193 -0.78730873 -5.57076855 0.00488175 0 0 Z " fill="#683059" transform="translate(124.84375,363.8671875)"/>
</svg>
